<mxfile host="65bd71144e">
    <diagram name="Trang-1" id="1kX5wOBAw2EkA_Ydrlhc">
        <mxGraphModel dx="746" dy="563" grid="1" gridSize="10" guides="1" tooltips="1" connect="1" arrows="1" fold="1" page="1" pageScale="1" pageWidth="827" pageHeight="1169" math="0" shadow="0">
            <root>
                <mxCell id="0"/>
                <mxCell id="1" parent="0"/>
                <mxCell id="7iD340ojAcF8-Xr9tdnB-1" value="Window Title" style="strokeWidth=1;shadow=0;dashed=0;align=center;html=1;shape=mxgraph.mockup.containers.window;align=left;verticalAlign=top;spacingLeft=8;strokeColor2=#008cff;strokeColor3=#c4c4c4;fontColor=#666666;mainText=;fontSize=17;labelBackgroundColor=none;whiteSpace=wrap;" parent="1" vertex="1">
                    <mxGeometry x="140" y="90" width="550" height="380" as="geometry"/>
                </mxCell>
                <mxCell id="7iD340ojAcF8-Xr9tdnB-2" value="&lt;b&gt;&lt;font face=&quot;Times New Roman&quot;&gt;Đăng kí đề tà&lt;/font&gt;&lt;/b&gt;i" style="strokeWidth=1;shadow=0;dashed=0;align=center;html=1;shape=mxgraph.mockup.containers.window;align=left;verticalAlign=top;spacingLeft=8;strokeColor2=#008cff;strokeColor3=#c4c4c4;fontColor=#666666;mainText=;fontSize=17;labelBackgroundColor=none;whiteSpace=wrap;" parent="1" vertex="1">
                    <mxGeometry x="30" y="30" width="770" height="520" as="geometry"/>
                </mxCell>
                <mxCell id="7iD340ojAcF8-Xr9tdnB-3" value="" style="shape=table;startSize=0;container=1;collapsible=0;childLayout=tableLayout;" parent="1" vertex="1">
                    <mxGeometry x="30" y="80" width="770" height="391" as="geometry"/>
                </mxCell>
                <mxCell id="7iD340ojAcF8-Xr9tdnB-4" value="" style="shape=tableRow;horizontal=0;startSize=0;swimlaneHead=0;swimlaneBody=0;strokeColor=inherit;top=0;left=0;bottom=0;right=0;collapsible=0;dropTarget=0;fillColor=none;points=[[0,0.5],[1,0.5]];portConstraint=eastwest;" parent="7iD340ojAcF8-Xr9tdnB-3" vertex="1">
                    <mxGeometry width="770" height="41" as="geometry"/>
                </mxCell>
                <mxCell id="7iD340ojAcF8-Xr9tdnB-5" value="&lt;b&gt;&lt;font face=&quot;Times New Roman&quot;&gt;GV HƯỚNG DẪN&lt;/font&gt;&lt;/b&gt;" style="shape=partialRectangle;html=1;whiteSpace=wrap;connectable=0;strokeColor=inherit;overflow=hidden;fillColor=none;top=0;left=0;bottom=0;right=0;pointerEvents=1;" parent="7iD340ojAcF8-Xr9tdnB-4" vertex="1">
                    <mxGeometry width="193" height="41" as="geometry">
                        <mxRectangle width="193" height="41" as="alternateBounds"/>
                    </mxGeometry>
                </mxCell>
                <mxCell id="7iD340ojAcF8-Xr9tdnB-6" value="&lt;b&gt;&lt;font face=&quot;Times New Roman&quot;&gt;ĐỀ TÀI&lt;/font&gt;&lt;/b&gt;" style="shape=partialRectangle;html=1;whiteSpace=wrap;connectable=0;strokeColor=inherit;overflow=hidden;fillColor=none;top=0;left=0;bottom=0;right=0;pointerEvents=1;" parent="7iD340ojAcF8-Xr9tdnB-4" vertex="1">
                    <mxGeometry x="193" width="192" height="41" as="geometry">
                        <mxRectangle width="192" height="41" as="alternateBounds"/>
                    </mxGeometry>
                </mxCell>
                <mxCell id="7iD340ojAcF8-Xr9tdnB-7" value="&lt;b&gt;&lt;font face=&quot;Times New Roman&quot;&gt;LƯU Ý&lt;/font&gt;&lt;/b&gt;" style="shape=partialRectangle;html=1;whiteSpace=wrap;connectable=0;strokeColor=inherit;overflow=hidden;fillColor=none;top=0;left=0;bottom=0;right=0;pointerEvents=1;" parent="7iD340ojAcF8-Xr9tdnB-4" vertex="1">
                    <mxGeometry x="385" width="195" height="41" as="geometry">
                        <mxRectangle width="195" height="41" as="alternateBounds"/>
                    </mxGeometry>
                </mxCell>
                <mxCell id="7iD340ojAcF8-Xr9tdnB-8" value="&lt;b&gt;&lt;font face=&quot;Times New Roman&quot;&gt;THÔNG TIN SINH VIÊN&lt;/font&gt;&lt;/b&gt;" style="shape=partialRectangle;html=1;whiteSpace=wrap;connectable=0;strokeColor=inherit;overflow=hidden;fillColor=none;top=0;left=0;bottom=0;right=0;pointerEvents=1;" parent="7iD340ojAcF8-Xr9tdnB-4" vertex="1">
                    <mxGeometry x="580" width="190" height="41" as="geometry">
                        <mxRectangle width="190" height="41" as="alternateBounds"/>
                    </mxGeometry>
                </mxCell>
                <mxCell id="7iD340ojAcF8-Xr9tdnB-9" style="shape=tableRow;horizontal=0;startSize=0;swimlaneHead=0;swimlaneBody=0;strokeColor=inherit;top=0;left=0;bottom=0;right=0;collapsible=0;dropTarget=0;fillColor=none;points=[[0,0.5],[1,0.5]];portConstraint=eastwest;" parent="7iD340ojAcF8-Xr9tdnB-3" vertex="1">
                    <mxGeometry y="41" width="770" height="81" as="geometry"/>
                </mxCell>
                <mxCell id="7iD340ojAcF8-Xr9tdnB-10" value="&lt;font style=&quot;font-size: 14px;&quot; face=&quot;Times New Roman&quot;&gt;Nguyễn Văn A&lt;/font&gt;" style="shape=partialRectangle;html=1;whiteSpace=wrap;connectable=0;strokeColor=inherit;overflow=hidden;fillColor=none;top=0;left=0;bottom=0;right=0;pointerEvents=1;" parent="7iD340ojAcF8-Xr9tdnB-9" vertex="1">
                    <mxGeometry width="193" height="81" as="geometry">
                        <mxRectangle width="193" height="81" as="alternateBounds"/>
                    </mxGeometry>
                </mxCell>
                <mxCell id="7iD340ojAcF8-Xr9tdnB-11" value="&lt;font face=&quot;Times New Roman&quot; style=&quot;font-size: 14px;&quot;&gt;Tìm hiểu.......&lt;/font&gt;" style="shape=partialRectangle;html=1;whiteSpace=wrap;connectable=0;strokeColor=inherit;overflow=hidden;fillColor=none;top=0;left=0;bottom=0;right=0;pointerEvents=1;" parent="7iD340ojAcF8-Xr9tdnB-9" vertex="1">
                    <mxGeometry x="193" width="192" height="81" as="geometry">
                        <mxRectangle width="192" height="81" as="alternateBounds"/>
                    </mxGeometry>
                </mxCell>
                <mxCell id="7iD340ojAcF8-Xr9tdnB-12" value="&lt;font face=&quot;Times New Roman&quot; style=&quot;font-size: 14px;&quot;&gt;cần sử dụng công nghệ .....&lt;/font&gt;" style="shape=partialRectangle;html=1;whiteSpace=wrap;connectable=0;strokeColor=inherit;overflow=hidden;fillColor=none;top=0;left=0;bottom=0;right=0;pointerEvents=1;" parent="7iD340ojAcF8-Xr9tdnB-9" vertex="1">
                    <mxGeometry x="385" width="195" height="81" as="geometry">
                        <mxRectangle width="195" height="81" as="alternateBounds"/>
                    </mxGeometry>
                </mxCell>
                <mxCell id="7iD340ojAcF8-Xr9tdnB-13" value="&lt;font face=&quot;Times New Roman&quot; style=&quot;font-size: 14px;&quot;&gt;mssv-họ tên-mã lớp&lt;/font&gt;" style="shape=partialRectangle;html=1;whiteSpace=wrap;connectable=0;strokeColor=inherit;overflow=hidden;fillColor=none;top=0;left=0;bottom=0;right=0;pointerEvents=1;" parent="7iD340ojAcF8-Xr9tdnB-9" vertex="1">
                    <mxGeometry x="580" width="190" height="81" as="geometry">
                        <mxRectangle width="190" height="81" as="alternateBounds"/>
                    </mxGeometry>
                </mxCell>
                <mxCell id="7iD340ojAcF8-Xr9tdnB-14" value="" style="shape=tableRow;horizontal=0;startSize=0;swimlaneHead=0;swimlaneBody=0;strokeColor=inherit;top=0;left=0;bottom=0;right=0;collapsible=0;dropTarget=0;fillColor=none;points=[[0,0.5],[1,0.5]];portConstraint=eastwest;" parent="7iD340ojAcF8-Xr9tdnB-3" vertex="1">
                    <mxGeometry y="122" width="770" height="89" as="geometry"/>
                </mxCell>
                <mxCell id="7iD340ojAcF8-Xr9tdnB-15" value="&lt;font face=&quot;Times New Roman&quot; style=&quot;font-size: 14px;&quot;&gt;&lt;br&gt;&lt;span style=&quot;color: rgb(0, 0, 0); font-style: normal; font-variant-ligatures: normal; font-variant-caps: normal; font-weight: 400; letter-spacing: normal; orphans: 2; text-align: center; text-indent: 0px; text-transform: none; widows: 2; word-spacing: 0px; -webkit-text-stroke-width: 0px; background-color: rgb(251, 251, 251); text-decoration-thickness: initial; text-decoration-style: initial; text-decoration-color: initial; float: none; display: inline !important;&quot;&gt;Nguyễn Văn A&lt;/span&gt;&lt;br&gt;&lt;/font&gt;" style="shape=partialRectangle;html=1;whiteSpace=wrap;connectable=0;strokeColor=inherit;overflow=hidden;fillColor=none;top=0;left=0;bottom=0;right=0;pointerEvents=1;" parent="7iD340ojAcF8-Xr9tdnB-14" vertex="1">
                    <mxGeometry width="193" height="89" as="geometry">
                        <mxRectangle width="193" height="89" as="alternateBounds"/>
                    </mxGeometry>
                </mxCell>
                <mxCell id="7iD340ojAcF8-Xr9tdnB-16" value="&lt;font face=&quot;Times New Roman&quot; style=&quot;font-size: 14px;&quot;&gt;&lt;br&gt;&lt;span style=&quot;color: rgb(0, 0, 0); font-style: normal; font-variant-ligatures: normal; font-variant-caps: normal; font-weight: 400; letter-spacing: normal; orphans: 2; text-align: center; text-indent: 0px; text-transform: none; widows: 2; word-spacing: 0px; -webkit-text-stroke-width: 0px; background-color: rgb(251, 251, 251); text-decoration-thickness: initial; text-decoration-style: initial; text-decoration-color: initial; float: none; display: inline !important;&quot;&gt;Tìm hiểu.......&lt;/span&gt;&lt;br&gt;&lt;/font&gt;" style="shape=partialRectangle;html=1;whiteSpace=wrap;connectable=0;strokeColor=inherit;overflow=hidden;fillColor=none;top=0;left=0;bottom=0;right=0;pointerEvents=1;" parent="7iD340ojAcF8-Xr9tdnB-14" vertex="1">
                    <mxGeometry x="193" width="192" height="89" as="geometry">
                        <mxRectangle width="192" height="89" as="alternateBounds"/>
                    </mxGeometry>
                </mxCell>
                <mxCell id="7iD340ojAcF8-Xr9tdnB-17" value="&lt;font face=&quot;Times New Roman&quot; style=&quot;font-size: 14px;&quot;&gt;&lt;br&gt;&lt;span style=&quot;color: rgb(0, 0, 0); font-style: normal; font-variant-ligatures: normal; font-variant-caps: normal; font-weight: 400; letter-spacing: normal; orphans: 2; text-align: center; text-indent: 0px; text-transform: none; widows: 2; word-spacing: 0px; -webkit-text-stroke-width: 0px; background-color: rgb(251, 251, 251); text-decoration-thickness: initial; text-decoration-style: initial; text-decoration-color: initial; float: none; display: inline !important;&quot;&gt;cần sử dụng công nghệ .....&lt;/span&gt;&lt;br&gt;&lt;/font&gt;" style="shape=partialRectangle;html=1;whiteSpace=wrap;connectable=0;strokeColor=inherit;overflow=hidden;fillColor=none;top=0;left=0;bottom=0;right=0;pointerEvents=1;" parent="7iD340ojAcF8-Xr9tdnB-14" vertex="1">
                    <mxGeometry x="385" width="195" height="89" as="geometry">
                        <mxRectangle width="195" height="89" as="alternateBounds"/>
                    </mxGeometry>
                </mxCell>
                <mxCell id="7iD340ojAcF8-Xr9tdnB-18" value="&lt;font face=&quot;Times New Roman&quot; style=&quot;font-size: 14px;&quot;&gt;&lt;br&gt;&lt;span style=&quot;color: rgb(0, 0, 0); font-style: normal; font-variant-ligatures: normal; font-variant-caps: normal; font-weight: 400; letter-spacing: normal; orphans: 2; text-align: center; text-indent: 0px; text-transform: none; widows: 2; word-spacing: 0px; -webkit-text-stroke-width: 0px; background-color: rgb(251, 251, 251); text-decoration-thickness: initial; text-decoration-style: initial; text-decoration-color: initial; float: none; display: inline !important;&quot;&gt;mssv-họ tên-mã lớp&lt;/span&gt;&lt;br&gt;&lt;/font&gt;" style="shape=partialRectangle;html=1;whiteSpace=wrap;connectable=0;strokeColor=inherit;overflow=hidden;fillColor=none;top=0;left=0;bottom=0;right=0;pointerEvents=1;" parent="7iD340ojAcF8-Xr9tdnB-14" vertex="1">
                    <mxGeometry x="580" width="190" height="89" as="geometry">
                        <mxRectangle width="190" height="89" as="alternateBounds"/>
                    </mxGeometry>
                </mxCell>
                <mxCell id="7iD340ojAcF8-Xr9tdnB-19" value="" style="shape=tableRow;horizontal=0;startSize=0;swimlaneHead=0;swimlaneBody=0;strokeColor=inherit;top=0;left=0;bottom=0;right=0;collapsible=0;dropTarget=0;fillColor=none;points=[[0,0.5],[1,0.5]];portConstraint=eastwest;" parent="7iD340ojAcF8-Xr9tdnB-3" vertex="1">
                    <mxGeometry y="211" width="770" height="90" as="geometry"/>
                </mxCell>
                <mxCell id="7iD340ojAcF8-Xr9tdnB-20" value="&lt;font style=&quot;font-size: 14px;&quot;&gt;&lt;br&gt;&lt;span style=&quot;color: rgb(0, 0, 0); font-family: Helvetica; font-style: normal; font-variant-ligatures: normal; font-variant-caps: normal; font-weight: 400; letter-spacing: normal; orphans: 2; text-align: center; text-indent: 0px; text-transform: none; widows: 2; word-spacing: 0px; -webkit-text-stroke-width: 0px; background-color: rgb(251, 251, 251); text-decoration-thickness: initial; text-decoration-style: initial; text-decoration-color: initial; float: none; display: inline !important;&quot;&gt;Nguyễn Văn A&lt;/span&gt;&lt;br&gt;&lt;/font&gt;" style="shape=partialRectangle;html=1;whiteSpace=wrap;connectable=0;strokeColor=inherit;overflow=hidden;fillColor=none;top=0;left=0;bottom=0;right=0;pointerEvents=1;" parent="7iD340ojAcF8-Xr9tdnB-19" vertex="1">
                    <mxGeometry width="193" height="90" as="geometry">
                        <mxRectangle width="193" height="90" as="alternateBounds"/>
                    </mxGeometry>
                </mxCell>
                <mxCell id="7iD340ojAcF8-Xr9tdnB-21" value="&lt;font face=&quot;Times New Roman&quot; style=&quot;font-size: 14px;&quot;&gt;&lt;br&gt;&lt;br style=&quot;border-color: var(--border-color); color: rgb(0, 0, 0); font-style: normal; font-variant-ligatures: normal; font-variant-caps: normal; font-weight: 400; letter-spacing: normal; orphans: 2; text-align: center; text-indent: 0px; text-transform: none; widows: 2; word-spacing: 0px; -webkit-text-stroke-width: 0px; background-color: rgb(251, 251, 251); text-decoration-thickness: initial; text-decoration-style: initial; text-decoration-color: initial;&quot;&gt;&lt;span style=&quot;border-color: var(--border-color); color: rgb(0, 0, 0); font-style: normal; font-variant-ligatures: normal; font-variant-caps: normal; font-weight: 400; letter-spacing: normal; orphans: 2; text-align: center; text-indent: 0px; text-transform: none; widows: 2; word-spacing: 0px; -webkit-text-stroke-width: 0px; text-decoration-thickness: initial; text-decoration-style: initial; text-decoration-color: initial; background-color: rgb(251, 251, 251); float: none; display: inline !important;&quot;&gt;Tìm hiểu.......&lt;/span&gt;&lt;br style=&quot;border-color: var(--border-color); color: rgb(0, 0, 0); font-style: normal; font-variant-ligatures: normal; font-variant-caps: normal; font-weight: 400; letter-spacing: normal; orphans: 2; text-align: center; text-indent: 0px; text-transform: none; widows: 2; word-spacing: 0px; -webkit-text-stroke-width: 0px; background-color: rgb(251, 251, 251); text-decoration-thickness: initial; text-decoration-style: initial; text-decoration-color: initial;&quot;&gt;&lt;br&gt;&lt;/font&gt;" style="shape=partialRectangle;html=1;whiteSpace=wrap;connectable=0;strokeColor=inherit;overflow=hidden;fillColor=none;top=0;left=0;bottom=0;right=0;pointerEvents=1;" parent="7iD340ojAcF8-Xr9tdnB-19" vertex="1">
                    <mxGeometry x="193" width="192" height="90" as="geometry">
                        <mxRectangle width="192" height="90" as="alternateBounds"/>
                    </mxGeometry>
                </mxCell>
                <mxCell id="7iD340ojAcF8-Xr9tdnB-22" value="&lt;font face=&quot;Times New Roman&quot; style=&quot;font-size: 14px;&quot;&gt;&lt;br&gt;&lt;span style=&quot;color: rgb(0, 0, 0); font-style: normal; font-variant-ligatures: normal; font-variant-caps: normal; font-weight: 400; letter-spacing: normal; orphans: 2; text-align: center; text-indent: 0px; text-transform: none; widows: 2; word-spacing: 0px; -webkit-text-stroke-width: 0px; background-color: rgb(251, 251, 251); text-decoration-thickness: initial; text-decoration-style: initial; text-decoration-color: initial; float: none; display: inline !important;&quot;&gt;cần sử dụng công nghệ .....&lt;/span&gt;&lt;br&gt;&lt;/font&gt;" style="shape=partialRectangle;html=1;whiteSpace=wrap;connectable=0;strokeColor=inherit;overflow=hidden;fillColor=none;top=0;left=0;bottom=0;right=0;pointerEvents=1;" parent="7iD340ojAcF8-Xr9tdnB-19" vertex="1">
                    <mxGeometry x="385" width="195" height="90" as="geometry">
                        <mxRectangle width="195" height="90" as="alternateBounds"/>
                    </mxGeometry>
                </mxCell>
                <mxCell id="7iD340ojAcF8-Xr9tdnB-23" value="&lt;br style=&quot;border-color: var(--border-color); font-family: &amp;quot;Times New Roman&amp;quot;; font-size: 14px;&quot;&gt;mssv-họ tên-mã lớp&lt;font face=&quot;Times New Roman&quot; style=&quot;font-size: 14px;&quot;&gt;&lt;br&gt;&lt;/font&gt;" style="shape=partialRectangle;html=1;whiteSpace=wrap;connectable=0;strokeColor=inherit;overflow=hidden;fillColor=#99FFFF;top=0;left=0;bottom=0;right=0;pointerEvents=1;" parent="7iD340ojAcF8-Xr9tdnB-19" vertex="1">
                    <mxGeometry x="580" width="190" height="90" as="geometry">
                        <mxRectangle width="190" height="90" as="alternateBounds"/>
                    </mxGeometry>
                </mxCell>
                <mxCell id="7iD340ojAcF8-Xr9tdnB-54" style="shape=tableRow;horizontal=0;startSize=0;swimlaneHead=0;swimlaneBody=0;strokeColor=inherit;top=0;left=0;bottom=0;right=0;collapsible=0;dropTarget=0;fillColor=none;points=[[0,0.5],[1,0.5]];portConstraint=eastwest;" parent="7iD340ojAcF8-Xr9tdnB-3" vertex="1">
                    <mxGeometry y="301" width="770" height="90" as="geometry"/>
                </mxCell>
                <mxCell id="7iD340ojAcF8-Xr9tdnB-55" style="shape=partialRectangle;html=1;whiteSpace=wrap;connectable=0;strokeColor=inherit;overflow=hidden;fillColor=none;top=0;left=0;bottom=0;right=0;pointerEvents=1;" parent="7iD340ojAcF8-Xr9tdnB-54" vertex="1">
                    <mxGeometry width="193" height="90" as="geometry">
                        <mxRectangle width="193" height="90" as="alternateBounds"/>
                    </mxGeometry>
                </mxCell>
                <mxCell id="7iD340ojAcF8-Xr9tdnB-56" style="shape=partialRectangle;html=1;whiteSpace=wrap;connectable=0;strokeColor=inherit;overflow=hidden;fillColor=none;top=0;left=0;bottom=0;right=0;pointerEvents=1;" parent="7iD340ojAcF8-Xr9tdnB-54" vertex="1">
                    <mxGeometry x="193" width="192" height="90" as="geometry">
                        <mxRectangle width="192" height="90" as="alternateBounds"/>
                    </mxGeometry>
                </mxCell>
                <mxCell id="7iD340ojAcF8-Xr9tdnB-57" style="shape=partialRectangle;html=1;whiteSpace=wrap;connectable=0;strokeColor=inherit;overflow=hidden;fillColor=none;top=0;left=0;bottom=0;right=0;pointerEvents=1;" parent="7iD340ojAcF8-Xr9tdnB-54" vertex="1">
                    <mxGeometry x="385" width="195" height="90" as="geometry">
                        <mxRectangle width="195" height="90" as="alternateBounds"/>
                    </mxGeometry>
                </mxCell>
                <mxCell id="7iD340ojAcF8-Xr9tdnB-58" style="shape=partialRectangle;html=1;whiteSpace=wrap;connectable=0;strokeColor=inherit;overflow=hidden;fillColor=#FFFFFF;top=0;left=0;bottom=0;right=0;pointerEvents=1;" parent="7iD340ojAcF8-Xr9tdnB-54" vertex="1">
                    <mxGeometry x="580" width="190" height="90" as="geometry">
                        <mxRectangle width="190" height="90" as="alternateBounds"/>
                    </mxGeometry>
                </mxCell>
                <mxCell id="7iD340ojAcF8-Xr9tdnB-32" value="&lt;font face=&quot;Times New Roman&quot; style=&quot;font-size: 18px;&quot;&gt;Đăng kí&lt;/font&gt;" style="rounded=1;whiteSpace=wrap;html=1;fillColor=#66FFFF;" parent="1" vertex="1">
                    <mxGeometry x="670" y="490" width="90" height="40" as="geometry"/>
                </mxCell>
                <mxCell id="7iD340ojAcF8-Xr9tdnB-33" value="" style="shape=flexArrow;endArrow=classic;html=1;rounded=0;width=11;endSize=3.34;" parent="1" edge="1">
                    <mxGeometry width="50" height="50" relative="1" as="geometry">
                        <mxPoint x="600" y="410" as="sourcePoint"/>
                        <mxPoint x="650" y="360" as="targetPoint"/>
                    </mxGeometry>
                </mxCell>
            </root>
        </mxGraphModel>
    </diagram>
</mxfile>